<?xml version="1.0" standalone="no"?>
<!DOCTYPE svg PUBLIC "-//W3C//DTD SVG 20010904//EN"
 "http://www.w3.org/TR/2001/REC-SVG-20010904/DTD/svg10.dtd">
<svg version="1.0" xmlns="http://www.w3.org/2000/svg"
 width="600.000000pt" height="600.000000pt" viewBox="0 0 600.000000 600.000000"
 preserveAspectRatio="xMidYMid meet">
<metadata>
Created by potrace 1.11, written by Peter Selinger 2001-2013
</metadata>
<g transform="translate(0.000000,600.000000) scale(0.100000,-0.100000)"
fill="#000000" stroke="none">
<path d="M3785 5041 c-11 -5 -23 -7 -27 -5 -10 6 -134 -24 -212 -52 -90 -31
-203 -93 -293 -161 l-72 -54 -43 24 c-87 51 -196 74 -436 93 -42 3 -88 8 -102
11 -42 9 -521 11 -585 3 -33 -5 -85 -11 -115 -15 -146 -17 -369 -71 -530 -129
-557 -198 -930 -531 -1223 -1091 -54 -105 -106 -240 -121 -320 -4 -16 -9 -41
-12 -55 -3 -14 -7 -77 -9 -140 -4 -158 16 -203 105 -243 89 -40 202 -19 283
53 l37 32 12 -33 c30 -88 101 -210 233 -399 113 -162 154 -229 160 -257 12
-67 5 -228 -15 -338 -5 -27 -12 -66 -15 -85 -3 -19 -16 -96 -29 -170 -24 -136
-29 -325 -12 -410 34 -166 224 -300 481 -338 57 -8 470 -7 602 1 48 4 113 14
143 23 117 35 238 119 241 168 6 82 -30 195 -111 352 -76 147 -112 258 -112
344 1 36 2 73 4 82 6 28 47 78 64 78 8 0 60 -21 116 -46 77 -36 120 -49 182
-56 85 -10 237 -5 346 12 36 6 88 13 115 15 28 3 64 8 81 10 27 5 33 1 51 -32
58 -104 61 -198 13 -453 -39 -208 -35 -265 23 -347 51 -72 146 -122 257 -137
25 -3 70 -10 100 -15 55 -10 370 -7 530 4 67 5 107 15 189 48 111 45 164 85
174 135 7 34 -23 162 -67 283 -90 249 -109 330 -105 449 6 194 106 331 296
408 37 15 99 44 136 65 37 21 72 37 77 35 4 -2 -28 -41 -72 -88 -140 -148
-229 -282 -258 -390 -70 -261 171 -698 422 -764 52 -14 153 -14 213 -2 57 13
154 64 201 108 86 79 126 171 118 272 -7 82 -42 132 -146 205 -33 24 -45 38
-41 50 14 37 48 74 111 118 312 221 452 341 575 495 34 43 132 194 136 210 1
4 10 27 20 51 45 105 92 278 118 437 2 14 5 102 7 195 3 146 -8 296 -27 375
-2 8 -7 33 -11 55 -11 55 -43 167 -72 248 -22 62 -36 95 -82 197 -84 185 -287
454 -417 552 -124 94 -318 180 -505 223 -83 20 -215 45 -255 50 -27 3 -59 8
-71 10 -28 6 -106 17 -209 30 -27 4 -61 9 -75 12 -44 9 -464 12 -485 4z"/>
</g>
</svg>
